<svg version="1.1" id="Layer_1" xmlns="http://www.w3.org/2000/svg" xmlns:xlink="http://www.w3.org/1999/xlink" x="0px" y="0px"
	 width="100%" viewBox="0 0 675 638" enable-background="new 0 0 675 638" xml:space="preserve">
<path fill="#F4F1ED" opacity="1.000000" stroke="none" 
	d="
M1.000000,220.000000 
	C1.000000,146.666672 1.000000,73.833336 1.000000,1.000000 
	C226.000000,1.000000 451.000000,1.000000 676.000000,1.000000 
	C676.000000,213.666672 676.000000,426.333344 676.000000,639.000000 
	C451.000000,639.000000 226.000000,639.000000 1.000000,639.000000 
	C1.000000,499.500000 1.000000,360.000000 1.000000,220.000000 
M428.664764,27.924147 
	C409.536896,21.994947 390.093567,17.738117 370.118744,15.702363 
	C330.739868,11.689022 291.958832,14.348783 253.808365,25.097118 
	C191.276169,42.714638 139.394516,76.918755 98.187347,126.869629 
	C60.619965,172.408401 37.999710,224.755600 30.869219,283.509521 
	C26.827299,316.814148 27.439993,350.109375 34.301373,382.982758 
	C49.318474,454.930756 85.170670,514.759216 142.259384,560.957520 
	C209.500168,615.371277 286.832581,637.491272 372.813202,628.010010 
	C429.456390,621.763855 480.240967,600.348816 525.204407,565.488525 
	C568.652466,531.803162 600.946167,489.374359 621.874084,438.510040 
	C644.600891,383.274048 649.976990,325.975342 639.778748,267.391602 
	C630.565491,214.467072 608.415833,167.134018 573.997437,125.836342 
	C535.281921,79.382538 487.145691,46.608047 428.664764,27.924147 
z"/>
<path fill="#826029" opacity="1.000000" stroke="none" 
	d="
M429.046143,28.034336 
	C487.145691,46.608047 535.281921,79.382538 573.997437,125.836342 
	C608.415833,167.134018 630.565491,214.467072 639.778748,267.391602 
	C649.976990,325.975342 644.600891,383.274048 621.874084,438.510040 
	C600.946167,489.374359 568.652466,531.803162 525.204407,565.488525 
	C480.240967,600.348816 429.456390,621.763855 372.813202,628.010010 
	C286.832581,637.491272 209.500168,615.371277 142.259384,560.957520 
	C85.170670,514.759216 49.318474,454.930756 34.301373,382.982758 
	C27.439993,350.109375 26.827299,316.814148 30.869219,283.509521 
	C37.999710,224.755600 60.619965,172.408401 98.187347,126.869629 
	C139.394516,76.918755 191.276169,42.714638 253.808365,25.097118 
	C291.958832,14.348783 330.739868,11.689022 370.118744,15.702363 
	C390.093567,17.738117 409.536896,21.994947 429.046143,28.034336 
M317.663879,624.987305 
	C350.002380,626.973938 381.960876,624.279663 413.229675,615.829468 
	C474.938049,599.153198 527.072510,566.914978 568.168152,517.749695 
	C626.951965,447.422913 649.684265,366.200256 636.423950,275.944641 
	C625.257141,199.938828 588.890991,136.765671 529.435364,87.992783 
	C460.795135,31.685524 381.592346,9.805436 293.730896,21.528276 
	C231.932281,29.773705 177.337326,55.369507 131.987137,98.087410 
	C52.959362,172.528122 20.762436,264.474091 37.310764,371.771362 
	C49.143562,448.493744 87.267380,511.197144 148.004944,559.674866 
	C197.320145,599.035767 253.751862,620.568176 317.663879,624.987305 
z"/>
<path fill="#FEFDFC" opacity="1.000000" stroke="none" 
	d="
M317.186157,624.973328 
	C253.751862,620.568176 197.320145,599.035767 148.004944,559.674866 
	C87.267380,511.197144 49.143562,448.493744 37.310764,371.771362 
	C20.762436,264.474091 52.959362,172.528122 131.987137,98.087410 
	C177.337326,55.369507 231.932281,29.773705 293.730896,21.528276 
	C381.592346,9.805436 460.795135,31.685524 529.435364,87.992783 
	C588.890991,136.765671 625.257141,199.938828 636.423950,275.944641 
	C649.684265,366.200256 626.951965,447.422913 568.168152,517.749695 
	C527.072510,566.914978 474.938049,599.153198 413.229675,615.829468 
	C381.960876,624.279663 350.002380,626.973938 317.186157,624.973328 
M435.724213,586.927002 
	C485.302490,568.001526 526.748596,537.813110 559.261108,495.939514 
	C611.906311,428.136505 630.829834,351.211700 615.410034,267.160095 
	C600.635376,186.625519 557.186523,123.963676 488.156769,79.752876 
	C430.195953,42.631313 366.449799,29.553804 298.501740,38.371223 
	C242.402176,45.651093 192.718048,68.380486 150.264648,105.809906 
	C93.973320,155.439667 62.050545,218.030151 54.205818,292.612518 
	C50.717102,325.780914 53.487968,358.692566 61.702011,391.075592 
	C74.579376,441.843384 99.897682,485.549408 136.837692,522.525696 
	C155.288696,540.994751 175.833588,556.790955 199.415756,569.565308 
	C205.786224,572.808105 212.059158,576.261963 218.543594,579.258057 
	C251.267776,594.378479 285.654602,602.873901 321.673157,604.545654 
	C343.315460,605.550171 364.866394,604.750427 386.884338,600.262817 
	C387.591797,600.140198 388.299286,600.017578 389.820343,599.965027 
	C404.876556,595.634705 419.932739,591.304443 435.724213,586.927002 
z"/>
<path fill="#FDAA24" opacity="1.000000" stroke="none" 
	d="
M198.975449,569.057007 
	C175.833588,556.790955 155.288696,540.994751 136.837692,522.525696 
	C99.897682,485.549408 74.579376,441.843384 61.702011,391.075592 
	C53.487968,358.692566 50.717102,325.780914 54.205818,292.612518 
	C62.050545,218.030151 93.973320,155.439667 150.264648,105.809906 
	C192.718048,68.380486 242.402176,45.651093 298.501740,38.371223 
	C366.449799,29.553804 430.195953,42.631313 488.156769,79.752876 
	C557.186523,123.963676 600.635376,186.625519 615.410034,267.160095 
	C630.829834,351.211700 611.906311,428.136505 559.261108,495.939514 
	C526.748596,537.813110 485.302490,568.001526 435.129578,586.710327 
	C419.843689,590.363586 405.148315,594.217896 390.476257,598.158997 
	C389.874390,598.320679 389.491608,599.297791 389.006775,599.894958 
	C388.299286,600.017578 387.591797,600.140198 386.280853,599.968933 
	C384.730560,599.523499 383.765137,599.167114 382.839752,599.251160 
	C369.494507,600.464050 356.176056,602.144653 342.805725,602.847168 
	C334.221161,603.298218 325.537354,602.629639 316.942719,601.920837 
	C306.562958,601.064941 296.140656,600.148865 285.894531,598.357056 
	C256.867065,593.280701 229.316833,583.748047 203.338226,569.746399 
	C202.115341,569.087280 200.440063,569.267578 198.975449,569.057007 
M159.261047,346.175079 
	C164.082489,353.727600 170.182877,359.966003 177.847488,364.696350 
	C189.399399,371.825745 202.150482,375.341309 215.356949,377.697906 
	C216.887009,377.970947 219.113983,379.459229 219.407990,380.750580 
	C222.528381,394.456238 224.025864,408.346313 222.467041,422.395050 
	C221.461655,431.455933 220.105438,440.477844 218.744415,450.738770 
	C247.140198,434.899536 277.388885,430.076691 308.376282,429.220123 
	C339.413818,428.362183 369.936035,432.315491 399.834198,441.640686 
	C398.306366,439.453583 396.632935,437.673340 394.742645,436.164917 
	C382.708954,426.562622 369.050079,420.067413 354.263031,416.172791 
	C325.687012,408.646332 296.843140,409.847107 268.022034,414.614197 
	C259.383118,416.043091 250.868179,418.221344 241.803864,420.161774 
	C241.803864,417.522980 241.797073,415.230835 241.804947,412.938782 
	C241.862564,396.160614 239.898575,379.738647 233.742142,363.957214 
	C232.521271,360.827637 230.876724,360.087708 227.599091,359.669434 
	C218.065857,358.452698 208.359772,357.336517 199.230743,354.526489 
	C188.013962,351.073761 178.302048,344.459961 173.412750,333.181641 
	C160.169571,302.633026 176.600128,266.162170 221.169678,263.986328 
	C223.533905,281.642303 229.064331,298.004578 242.904221,310.413818 
	C241.641663,306.880615 239.729111,303.653534 238.225952,300.245880 
	C231.173615,284.258087 230.506836,267.598694 234.110168,250.806442 
	C240.208221,222.388367 255.970444,201.520935 283.320404,190.327805 
	C300.938599,183.117477 319.339966,182.706955 337.892578,184.998093 
	C354.834595,187.090347 370.178192,193.125748 382.615051,205.181274 
	C399.336792,221.390350 406.151001,241.812042 407.126617,264.571350 
	C407.257538,267.625397 407.144592,270.689911 407.144592,272.945923 
	C419.779572,272.945923 431.603516,272.217987 443.296173,273.145233 
	C455.639954,274.124146 467.486755,277.632263 477.617584,285.451813 
	C495.489471,299.246277 497.153992,326.004456 490.506104,344.082672 
	C483.995026,361.788910 469.303558,367.840790 452.196930,369.878418 
	C445.588318,370.665588 438.892090,370.717377 431.727814,371.133698 
	C440.376404,350.347382 441.097656,343.362915 436.010223,327.462524 
	C433.878143,343.085724 427.413177,355.341156 417.816284,366.141083 
	C408.169250,376.997467 396.866425,385.230225 382.723267,389.386810 
	C395.233856,391.203613 406.817505,388.666382 418.447449,382.702332 
	C415.457214,401.202911 417.547363,418.485382 422.228394,435.534271 
	C423.940155,420.234833 425.159515,404.972015 430.752625,390.458282 
	C431.762573,387.837494 432.812256,386.814636 435.749969,387.211212 
	C440.191284,387.810791 444.719177,388.190308 449.192657,388.059723 
	C472.073761,387.391663 491.711273,380.004456 504.354675,359.650360 
	C512.094604,347.190277 513.595215,333.169434 513.259338,318.774597 
	C512.549011,288.328186 494.530792,264.737396 464.986603,257.267517 
	C452.659088,254.150635 439.903656,252.726028 426.876862,250.450592 
	C425.488678,245.155563 424.065704,238.654037 422.078003,232.330017 
	C413.072388,203.678162 395.312347,182.575806 367.117554,171.500946 
	C343.883911,162.374817 319.592224,161.722839 295.284760,166.175507 
	C254.973145,173.559860 227.840256,201.999496 222.038834,242.318497 
	C221.655365,244.983551 220.667160,245.771866 218.080978,246.246536 
	C210.570435,247.625031 202.918777,248.792633 195.719864,251.221008 
	C147.400482,267.520477 143.113541,317.724792 159.261047,346.175079 
M599.168274,282.588989 
	C601.812866,274.721832 602.586853,266.790802 601.042969,258.514862 
	C597.286865,238.380325 578.724060,223.384720 557.213501,223.448868 
	C538.212830,223.505539 519.597717,239.061539 515.929138,257.923523 
	C513.664246,269.568878 515.246216,280.612488 522.080627,290.383728 
	C532.044250,304.628906 533.671204,319.539581 527.951965,335.879913 
	C522.509155,351.430725 517.890381,367.270660 512.952820,382.997131 
	C511.852325,386.502380 511.182312,390.043854 506.370117,390.609741 
	C505.144165,390.753876 503.815857,393.047302 503.167206,394.614990 
	C496.611481,410.458527 490.097198,426.320618 483.756409,442.251190 
	C479.201508,453.694977 484.260162,464.727478 495.468719,468.380707 
	C505.313873,471.589569 516.001770,465.062531 518.780457,453.660217 
	C522.916443,436.687866 526.755432,419.641571 530.513977,402.581177 
	C530.878723,400.925354 530.329834,398.502289 529.261963,397.221832 
	C527.391968,394.979523 527.335754,393.041412 528.182190,390.451447 
	C533.866821,373.057861 539.666199,355.695862 544.953979,338.180389 
	C549.411377,323.415863 558.197388,313.137085 572.942932,308.033020 
	C585.286499,303.760345 593.718201,295.188843 599.168274,282.588989 
M152.222702,359.180206 
	C147.235291,345.963623 142.393707,332.688995 137.171875,319.565704 
	C135.600616,315.616882 135.956680,312.943237 139.110748,309.985077 
	C146.391663,303.156433 149.842651,294.573761 147.702850,284.685699 
	C144.432083,269.571320 140.705414,254.548691 136.842285,239.572220 
	C134.669434,231.148651 127.649956,225.648422 118.969681,225.426819 
	C101.968628,224.992813 86.799263,229.988281 74.233025,241.763870 
	C66.215149,249.277298 64.917801,257.208221 70.020073,266.996033 
	C75.944519,278.361084 82.511894,289.420563 87.879845,301.037933 
	C93.459785,313.114075 102.426453,319.274597 115.440132,319.790619 
	C118.649139,319.917877 119.936668,321.304626 120.988319,324.164703 
	C128.957779,345.838440 137.060776,367.463531 145.235901,389.060699 
	C146.571823,392.589966 147.933411,395.709656 144.870621,399.194550 
	C144.013565,400.169769 144.401978,402.669464 144.851624,404.294861 
	C148.310181,416.796661 151.899933,429.262421 155.502533,441.723907 
	C156.979828,446.833862 158.150421,452.092712 160.224701,456.958038 
	C165.456970,469.230743 181.369003,472.035339 190.367355,462.239594 
	C196.242447,455.843872 196.927292,448.362701 193.209488,440.462860 
	C186.264008,425.704681 179.322556,410.943939 172.514664,396.122162 
	C170.990173,392.803131 169.500961,390.005951 165.324600,389.444305 
	C164.177338,389.290039 162.881378,387.380524 162.345596,386.006592 
	C158.967667,377.344513 155.784683,368.606384 152.222702,359.180206 
z"/>
<path fill="#FEA81C" opacity="1.000000" stroke="none" 
	d="
M199.195602,569.311157 
	C200.440063,569.267578 202.115341,569.087280 203.338226,569.746399 
	C229.316833,583.748047 256.867065,593.280701 285.894531,598.357056 
	C296.140656,600.148865 306.562958,601.064941 316.942719,601.920837 
	C325.537354,602.629639 334.221161,603.298218 342.805725,602.847168 
	C356.176056,602.144653 369.494507,600.464050 382.839752,599.251160 
	C383.765137,599.167114 384.730560,599.523499 385.921265,599.995728 
	C364.866394,604.750427 343.315460,605.550171 321.673157,604.545654 
	C285.654602,602.873901 251.267776,594.378479 218.543594,579.258057 
	C212.059158,576.261963 205.786224,572.808105 199.195602,569.311157 
z"/>
<path fill="#FEA71A" opacity="1.000000" stroke="none" 
	d="
M389.413574,599.929993 
	C389.491608,599.297791 389.874390,598.320679 390.476257,598.158997 
	C405.148315,594.217896 419.843689,590.363586 434.761932,586.733887 
	C419.932739,591.304443 404.876556,595.634705 389.413574,599.929993 
z"/>
<path fill="#FFFEFC" opacity="1.000000" stroke="none" 
	d="
M159.071701,345.862915 
	C143.113541,317.724792 147.400482,267.520477 195.719864,251.221008 
	C202.918777,248.792633 210.570435,247.625031 218.080978,246.246536 
	C220.667160,245.771866 221.655365,244.983551 222.038834,242.318497 
	C227.840256,201.999496 254.973145,173.559860 295.284760,166.175507 
	C319.592224,161.722839 343.883911,162.374817 367.117554,171.500946 
	C395.312347,182.575806 413.072388,203.678162 422.078003,232.330017 
	C424.065704,238.654037 425.488678,245.155563 426.876862,250.450592 
	C439.903656,252.726028 452.659088,254.150635 464.986603,257.267517 
	C494.530792,264.737396 512.549011,288.328186 513.259338,318.774597 
	C513.595215,333.169434 512.094604,347.190277 504.354675,359.650360 
	C491.711273,380.004456 472.073761,387.391663 449.192657,388.059723 
	C444.719177,388.190308 440.191284,387.810791 435.749969,387.211212 
	C432.812256,386.814636 431.762573,387.837494 430.752625,390.458282 
	C425.159515,404.972015 423.940155,420.234833 422.228394,435.534271 
	C417.547363,418.485382 415.457214,401.202911 418.447449,382.702332 
	C406.817505,388.666382 395.233856,391.203613 382.723267,389.386810 
	C396.866425,385.230225 408.169250,376.997467 417.816284,366.141083 
	C427.413177,355.341156 433.878143,343.085724 436.010223,327.462524 
	C441.097656,343.362915 440.376404,350.347382 431.727814,371.133698 
	C438.892090,370.717377 445.588318,370.665588 452.196930,369.878418 
	C469.303558,367.840790 483.995026,361.788910 490.506104,344.082672 
	C497.153992,326.004456 495.489471,299.246277 477.617584,285.451813 
	C467.486755,277.632263 455.639954,274.124146 443.296173,273.145233 
	C431.603516,272.217987 419.779572,272.945923 407.144592,272.945923 
	C407.144592,270.689911 407.257538,267.625397 407.126617,264.571350 
	C406.151001,241.812042 399.336792,221.390350 382.615051,205.181274 
	C370.178192,193.125748 354.834595,187.090347 337.892578,184.998093 
	C319.339966,182.706955 300.938599,183.117477 283.320404,190.327805 
	C255.970444,201.520935 240.208221,222.388367 234.110168,250.806442 
	C230.506836,267.598694 231.173615,284.258087 238.225952,300.245880 
	C239.729111,303.653534 241.641663,306.880615 242.904221,310.413818 
	C229.064331,298.004578 223.533905,281.642303 221.169678,263.986328 
	C176.600128,266.162170 160.169571,302.633026 173.412750,333.181641 
	C178.302048,344.459961 188.013962,351.073761 199.230743,354.526489 
	C208.359772,357.336517 218.065857,358.452698 227.599091,359.669434 
	C230.876724,360.087708 232.521271,360.827637 233.742142,363.957214 
	C239.898575,379.738647 241.862564,396.160614 241.804947,412.938782 
	C241.797073,415.230835 241.803864,417.522980 241.803864,420.161774 
	C250.868179,418.221344 259.383118,416.043091 268.022034,414.614197 
	C296.843140,409.847107 325.687012,408.646332 354.263031,416.172791 
	C369.050079,420.067413 382.708954,426.562622 394.742645,436.164917 
	C396.632935,437.673340 398.306366,439.453583 399.834198,441.640686 
	C369.936035,432.315491 339.413818,428.362183 308.376282,429.220123 
	C277.388885,430.076691 247.140198,434.899536 218.744415,450.738770 
	C220.105438,440.477844 221.461655,431.455933 222.467041,422.395050 
	C224.025864,408.346313 222.528381,394.456238 219.407990,380.750580 
	C219.113983,379.459229 216.887009,377.970947 215.356949,377.697906 
	C202.150482,375.341309 189.399399,371.825745 177.847488,364.696350 
	C170.182877,359.966003 164.082489,353.727600 159.071701,345.862915 
z"/>
<path fill="#FFFAF2" opacity="1.000000" stroke="none" 
	d="
M599.059143,282.962769 
	C593.718201,295.188843 585.286499,303.760345 572.942932,308.033020 
	C558.197388,313.137085 549.411377,323.415863 544.953979,338.180389 
	C539.666199,355.695862 533.866821,373.057861 528.182190,390.451447 
	C527.335754,393.041412 527.391968,394.979523 529.261963,397.221832 
	C530.329834,398.502289 530.878723,400.925354 530.513977,402.581177 
	C526.755432,419.641571 522.916443,436.687866 518.780457,453.660217 
	C516.001770,465.062531 505.313873,471.589569 495.468719,468.380707 
	C484.260162,464.727478 479.201508,453.694977 483.756409,442.251190 
	C490.097198,426.320618 496.611481,410.458527 503.167206,394.614990 
	C503.815857,393.047302 505.144165,390.753876 506.370117,390.609741 
	C511.182312,390.043854 511.852325,386.502380 512.952820,382.997131 
	C517.890381,367.270660 522.509155,351.430725 527.951965,335.879913 
	C533.671204,319.539581 532.044250,304.628906 522.080627,290.383728 
	C515.246216,280.612488 513.664246,269.568878 515.929138,257.923523 
	C519.597717,239.061539 538.212830,223.505539 557.213501,223.448868 
	C578.724060,223.384720 597.286865,238.380325 601.042969,258.514862 
	C602.586853,266.790802 601.812866,274.721832 599.059143,282.962769 
M556.348267,311.828888 
	C561.148499,309.244476 565.737427,306.107727 570.787292,304.175629 
	C588.393860,297.439209 598.339172,282.532654 597.128845,263.871033 
	C595.946594,245.641769 580.310852,229.467056 562.585815,228.137390 
	C542.859741,226.657608 525.303650,238.950027 520.875916,257.262909 
	C517.865845,269.712646 520.591614,280.890045 527.735291,291.347534 
	C536.588257,304.307159 538.259460,318.339020 533.406555,333.259949 
	C530.010193,343.702454 526.835144,354.217163 523.585449,364.707092 
	C521.143433,372.589966 518.739807,380.484680 516.252136,388.592499 
	C518.995972,389.552765 521.143677,390.304382 523.558777,391.149536 
	C529.432983,372.565155 535.267761,354.360016 540.925537,336.100037 
	C543.803040,326.813202 548.526428,318.774567 556.348267,311.828888 
M486.840607,453.092010 
	C488.692596,460.074310 493.202881,464.055481 499.579529,464.336456 
	C506.548859,464.643585 511.910400,461.344086 513.773132,454.343262 
	C517.170532,441.574890 519.968567,428.647095 523.068848,415.565613 
	C515.872070,413.319336 509.160522,411.224548 502.199493,409.051849 
	C497.226654,421.387299 492.314209,433.341919 487.639496,445.388855 
	C486.831299,447.471649 487.031036,449.945557 486.840607,453.092010 
M514.389282,393.639404 
	C507.143646,394.284882 507.035828,394.403442 504.408997,404.893097 
	C510.761322,406.945343 517.136108,409.004852 523.459595,411.047791 
	C527.964966,400.402405 526.853394,396.158722 514.389282,393.639404 
z"/>
<path fill="#FFFAF3" opacity="1.000000" stroke="none" 
	d="
M152.380005,359.536804 
	C155.784683,368.606384 158.967667,377.344513 162.345596,386.006592 
	C162.881378,387.380524 164.177338,389.290039 165.324600,389.444305 
	C169.500961,390.005951 170.990173,392.803131 172.514664,396.122162 
	C179.322556,410.943939 186.264008,425.704681 193.209488,440.462860 
	C196.927292,448.362701 196.242447,455.843872 190.367355,462.239594 
	C181.369003,472.035339 165.456970,469.230743 160.224701,456.958038 
	C158.150421,452.092712 156.979828,446.833862 155.502533,441.723907 
	C151.899933,429.262421 148.310181,416.796661 144.851624,404.294861 
	C144.401978,402.669464 144.013565,400.169769 144.870621,399.194550 
	C147.933411,395.709656 146.571823,392.589966 145.235901,389.060699 
	C137.060776,367.463531 128.957779,345.838440 120.988319,324.164703 
	C119.936668,321.304626 118.649139,319.917877 115.440132,319.790619 
	C102.426453,319.274597 93.459785,313.114075 87.879845,301.037933 
	C82.511894,289.420563 75.944519,278.361084 70.020073,266.996033 
	C64.917801,257.208221 66.215149,249.277298 74.233025,241.763870 
	C86.799263,229.988281 101.968628,224.992813 118.969681,225.426819 
	C127.649956,225.648422 134.669434,231.148651 136.842285,239.572220 
	C140.705414,254.548691 144.432083,269.571320 147.702850,284.685699 
	C149.842651,294.573761 146.391663,303.156433 139.110748,309.985077 
	C135.956680,312.943237 135.600616,315.616882 137.171875,319.565704 
	C142.393707,332.688995 147.235291,345.963623 152.380005,359.536804 
M137.376999,261.161194 
	C135.876221,254.673828 134.511887,248.150986 132.837891,241.708633 
	C131.011780,234.680817 125.871536,230.406509 118.976891,230.065567 
	C104.002670,229.325150 90.712845,233.790802 79.262802,243.461929 
	C70.801056,250.609039 69.677162,256.608429 74.736259,266.288696 
	C80.907578,278.097137 87.215797,289.835144 93.274544,301.700806 
	C97.040291,309.075806 102.610168,313.680023 110.971016,314.633423 
	C113.285858,314.897369 115.585472,315.421539 117.903389,315.502655 
	C121.544846,315.630066 123.349312,317.328094 124.615074,320.813690 
	C130.867416,338.031097 137.411240,355.142731 143.869385,372.285217 
	C146.257294,378.623627 148.692001,384.944397 151.196518,391.512177 
	C153.878799,390.444458 155.985184,389.605957 158.353821,388.663086 
	C157.730820,386.860352 157.229340,385.300568 156.656311,383.767548 
	C149.019745,363.337189 141.714996,342.772369 133.542191,322.558594 
	C130.711761,315.558105 131.015488,310.827820 136.778122,305.652100 
	C143.321732,299.774902 145.217010,292.062256 142.749176,283.304291 
	C140.765610,276.264923 139.320724,269.073761 137.376999,261.161194 
M157.708679,414.149750 
	C156.108307,414.846466 154.507935,415.543182 152.818329,416.278778 
	C155.870605,426.848328 158.718536,436.888489 161.688019,446.892578 
	C162.675247,450.218536 163.568222,453.674500 165.215591,456.681305 
	C168.648987,462.948059 175.810822,465.159119 182.383606,462.467316 
	C188.771332,459.851379 193.044296,452.484558 190.472153,446.225677 
	C185.257294,433.536316 179.209442,421.189270 173.334549,408.328003 
	C168.018219,410.335327 163.238892,412.139893 157.708679,414.149750 
M151.654724,411.024353 
	C158.010452,408.899445 164.366165,406.774536 171.340897,404.442657 
	C169.363678,400.538727 168.430893,395.619659 166.132446,394.866089 
	C162.510406,393.678589 157.639938,394.464874 153.913223,395.954712 
	C150.298599,397.399658 147.390869,400.692749 149.817535,405.583801 
	C150.540756,407.041473 150.737885,408.760132 151.654724,411.024353 
z"/>
<path fill="#FDAC27" opacity="1.000000" stroke="none" 
	d="
M556.069336,312.050446 
	C548.526428,318.774567 543.803040,326.813202 540.925537,336.100037 
	C535.267761,354.360016 529.432983,372.565155 523.558777,391.149536 
	C521.143677,390.304382 518.995972,389.552765 516.252136,388.592499 
	C518.739807,380.484680 521.143433,372.589966 523.585449,364.707092 
	C526.835144,354.217163 530.010193,343.702454 533.406555,333.259949 
	C538.259460,318.339020 536.588257,304.307159 527.735291,291.347534 
	C520.591614,280.890045 517.865845,269.712646 520.875916,257.262909 
	C525.303650,238.950027 542.859741,226.657608 562.585815,228.137390 
	C580.310852,229.467056 595.946594,245.641769 597.128845,263.871033 
	C598.339172,282.532654 588.393860,297.439209 570.787292,304.175629 
	C565.737427,306.107727 561.148499,309.244476 556.069336,312.050446 
M565.775330,242.745316 
	C561.110229,241.682968 558.417358,244.036743 557.087219,248.129150 
	C553.241333,259.961212 549.457886,271.815216 545.821228,283.712982 
	C544.067261,289.451233 545.808716,293.120178 550.446411,294.455688 
	C554.292175,295.563141 557.757751,293.190308 559.449097,287.959381 
	C563.226379,276.276978 566.928223,264.569489 570.555664,252.839706 
	C571.884399,248.543228 571.053955,244.920868 565.775330,242.745316 
M574.005920,264.621735 
	C572.351929,269.831726 570.570557,275.005585 569.081665,280.262329 
	C567.732727,285.024658 569.263794,288.531830 572.847717,289.737305 
	C576.784729,291.061554 580.313171,289.055908 581.935242,284.290314 
	C583.588440,279.433136 584.975342,274.485992 586.535950,269.596497 
	C587.791748,265.662201 587.404724,262.081635 583.332458,260.300018 
	C579.456787,258.604431 576.194702,259.926636 574.005920,264.621735 
M545.797058,261.194458 
	C546.230530,259.597290 546.623657,257.987793 547.105347,256.405273 
	C548.359192,252.285721 547.205200,249.129974 543.201660,247.419647 
	C539.602295,245.882050 535.888794,247.901550 534.328857,252.360672 
	C532.469177,257.676758 530.836304,263.077820 529.277100,268.491577 
	C528.091064,272.609802 529.453796,275.724335 533.631531,277.191132 
	C537.243652,278.459381 540.520569,276.584595 542.079163,272.330200 
	C543.333313,268.906799 544.356018,265.398621 545.797058,261.194458 
z"/>
<path fill="#FDAC28" opacity="1.000000" stroke="none" 
	d="
M486.802917,452.665405 
	C487.031036,449.945557 486.831299,447.471649 487.639496,445.388855 
	C492.314209,433.341919 497.226654,421.387299 502.199493,409.051849 
	C509.160522,411.224548 515.872070,413.319336 523.068848,415.565613 
	C519.968567,428.647095 517.170532,441.574890 513.773132,454.343262 
	C511.910400,461.344086 506.548859,464.643585 499.579529,464.336456 
	C493.202881,464.055481 488.692596,460.074310 486.802917,452.665405 
M492.031708,451.968201 
	C492.779083,453.243591 493.323303,454.711304 494.313263,455.757080 
	C496.916840,458.507416 500.017487,459.556793 503.792908,458.089203 
	C507.741486,456.554291 510.098663,453.268860 509.399872,449.631714 
	C508.834167,446.687042 506.337738,443.201752 503.707855,441.752228 
	C497.989502,438.600647 492.332611,443.431946 492.031708,451.968201 
z"/>
<path fill="#FDAD2B" opacity="1.000000" stroke="none" 
	d="
M514.826538,393.646423 
	C526.853394,396.158722 527.964966,400.402405 523.459595,411.047791 
	C517.136108,409.004852 510.761322,406.945343 504.408997,404.893097 
	C507.035828,394.403442 507.143646,394.284882 514.826538,393.646423 
z"/>
<path fill="#FDAC28" opacity="1.000000" stroke="none" 
	d="
M137.506897,261.555573 
	C139.320724,269.073761 140.765610,276.264923 142.749176,283.304291 
	C145.217010,292.062256 143.321732,299.774902 136.778122,305.652100 
	C131.015488,310.827820 130.711761,315.558105 133.542191,322.558594 
	C141.714996,342.772369 149.019745,363.337189 156.656311,383.767548 
	C157.229340,385.300568 157.730820,386.860352 158.353821,388.663086 
	C155.985184,389.605957 153.878799,390.444458 151.196518,391.512177 
	C148.692001,384.944397 146.257294,378.623627 143.869385,372.285217 
	C137.411240,355.142731 130.867416,338.031097 124.615074,320.813690 
	C123.349312,317.328094 121.544846,315.630066 117.903389,315.502655 
	C115.585472,315.421539 113.285858,314.897369 110.971016,314.633423 
	C102.610168,313.680023 97.040291,309.075806 93.274544,301.700806 
	C87.215797,289.835144 80.907578,278.097137 74.736259,266.288696 
	C69.677162,256.608429 70.801056,250.609039 79.262802,243.461929 
	C90.712845,233.790802 104.002670,229.325150 118.976891,230.065567 
	C125.871536,230.406509 131.011780,234.680817 132.837891,241.708633 
	C134.511887,248.150986 135.876221,254.673828 137.506897,261.555573 
M102.441742,270.075653 
	C105.051659,277.084351 107.578705,284.125366 110.298409,291.091217 
	C112.374352,296.408203 115.692078,298.230377 119.785667,296.629517 
	C123.553619,295.156036 124.861145,291.481445 123.043083,286.526947 
	C118.690674,274.665863 114.250870,262.836212 109.746849,251.031815 
	C108.080185,246.663742 104.340393,244.662369 100.731087,246.241806 
	C96.724434,247.995132 95.631630,251.261963 97.034195,255.301651 
	C98.668732,260.009460 100.440178,264.669739 102.441742,270.075653 
M100.591347,276.789978 
	C98.407921,269.753754 96.450119,262.636078 93.951141,255.713791 
	C92.589104,251.940887 89.333160,250.429672 85.431580,252.032272 
	C81.341133,253.712448 80.289742,256.947174 81.802856,261.027496 
	C83.706909,266.161957 85.307404,271.452332 87.732178,276.330841 
	C88.833275,278.546173 91.480888,281.131866 93.648331,281.349976 
	C95.715019,281.558014 98.069572,278.905670 100.591347,276.789978 
M116.925278,262.489044 
	C117.182449,263.099518 117.426788,263.715729 117.698784,264.319550 
	C120.090210,269.628174 123.171326,271.383423 127.136703,269.702820 
	C130.942459,268.089813 132.047791,264.740997 130.241379,259.575867 
	C128.548645,254.735825 126.730957,249.936142 124.836601,245.171021 
	C123.317383,241.349518 120.626488,239.139725 116.308342,240.344940 
	C112.479385,241.413620 110.822243,245.114029 112.244194,249.642899 
	C113.531616,253.743271 115.210762,257.720642 116.925278,262.489044 
z"/>
<path fill="#FDAC28" opacity="1.000000" stroke="none" 
	d="
M158.084122,414.047119 
	C163.238892,412.139893 168.018219,410.335327 173.334549,408.328003 
	C179.209442,421.189270 185.257294,433.536316 190.472153,446.225677 
	C193.044296,452.484558 188.771332,459.851379 182.383606,462.467316 
	C175.810822,465.159119 168.648987,462.948059 165.215591,456.681305 
	C163.568222,453.674500 162.675247,450.218536 161.688019,446.892578 
	C158.718536,436.888489 155.870605,426.848328 152.818329,416.278778 
	C154.507935,415.543182 156.108307,414.846466 158.084122,414.047119 
M181.620560,441.705963 
	C176.293030,439.342010 172.541672,439.949524 169.705261,443.815155 
	C167.278809,447.122070 167.183411,450.630524 169.577866,453.980896 
	C172.830750,458.532227 178.425766,459.161316 182.673401,455.596893 
	C186.829636,452.109100 186.691422,447.259644 181.620560,441.705963 
z"/>
<path fill="#FDAC29" opacity="1.000000" stroke="none" 
	d="
M151.415390,410.691772 
	C150.737885,408.760132 150.540756,407.041473 149.817535,405.583801 
	C147.390869,400.692749 150.298599,397.399658 153.913223,395.954712 
	C157.639938,394.464874 162.510406,393.678589 166.132446,394.866089 
	C168.430893,395.619659 169.363678,400.538727 171.340897,404.442657 
	C164.366165,406.774536 158.010452,408.899445 151.415390,410.691772 
z"/>
<path fill="#FFFAF3" opacity="1.000000" stroke="none" 
	d="
M566.138306,242.836227 
	C571.053955,244.920868 571.884399,248.543228 570.555664,252.839706 
	C566.928223,264.569489 563.226379,276.276978 559.449097,287.959381 
	C557.757751,293.190308 554.292175,295.563141 550.446411,294.455688 
	C545.808716,293.120178 544.067261,289.451233 545.821228,283.712982 
	C549.457886,271.815216 553.241333,259.961212 557.087219,248.129150 
	C558.417358,244.036743 561.110229,241.682968 566.138306,242.836227 
M558.505798,258.006775 
	C555.649597,267.206665 552.710388,276.382599 550.039124,285.635864 
	C549.692993,286.834869 550.730713,288.433350 551.127441,289.846802 
	C552.440430,288.929047 554.327576,288.292908 554.945129,287.033997 
	C556.171082,284.534760 556.664795,281.681915 557.518494,278.993439 
	C560.385010,269.965912 563.377686,260.976105 566.048523,251.891418 
	C566.440979,250.556610 565.351807,248.786209 564.948181,247.217346 
	C563.657227,248.193100 561.882996,248.908081 561.184143,250.203308 
	C560.020264,252.360641 559.545532,254.889801 558.505798,258.006775 
z"/>
<path fill="#FFFAF3" opacity="1.000000" stroke="none" 
	d="
M574.130554,264.251099 
	C576.194702,259.926636 579.456787,258.604431 583.332458,260.300018 
	C587.404724,262.081635 587.791748,265.662201 586.535950,269.596497 
	C584.975342,274.485992 583.588440,279.433136 581.935242,284.290314 
	C580.313171,289.055908 576.784729,291.061554 572.847717,289.737305 
	C569.263794,288.531830 567.732727,285.024658 569.081665,280.262329 
	C570.570557,275.005585 572.351929,269.831726 574.130554,264.251099 
M578.000793,266.622406 
	C576.421936,271.520844 574.683655,276.377411 573.378296,281.347687 
	C573.058777,282.564240 574.156372,284.152985 574.602478,285.570557 
	C575.660339,284.692474 577.280151,284.015747 577.679382,282.901703 
	C579.468750,277.907898 581.011963,272.816803 582.389099,267.692322 
	C582.651428,266.716217 581.761658,265.430511 581.403381,264.287628 
	C580.351990,264.824005 579.300598,265.360382 578.000793,266.622406 
z"/>
<path fill="#FFFBF4" opacity="1.000000" stroke="none" 
	d="
M545.639282,261.561279 
	C544.356018,265.398621 543.333313,268.906799 542.079163,272.330200 
	C540.520569,276.584595 537.243652,278.459381 533.631531,277.191132 
	C529.453796,275.724335 528.091064,272.609802 529.277100,268.491577 
	C530.836304,263.077820 532.469177,257.676758 534.328857,252.360672 
	C535.888794,247.901550 539.602295,245.882050 543.201660,247.419647 
	C547.205200,249.129974 548.359192,252.285721 547.105347,256.405273 
	C546.623657,257.987793 546.230530,259.597290 545.639282,261.561279 
M539.797241,265.231476 
	C540.794128,261.916351 541.975037,258.639771 542.681885,255.263931 
	C542.910583,254.171692 541.895569,252.819031 541.449402,251.585541 
	C540.482361,252.318237 539.020020,252.854233 538.636963,253.818832 
	C537.236389,257.345184 535.931763,260.955536 535.108276,264.649567 
	C534.523071,267.274933 534.769226,270.085602 534.644287,272.813568 
	C539.336975,272.720276 537.949585,268.290527 539.797241,265.231476 
z"/>
<path fill="#FFF9F1" opacity="1.000000" stroke="none" 
	d="
M491.971008,451.568909 
	C492.332611,443.431946 497.989502,438.600647 503.707855,441.752228 
	C506.337738,443.201752 508.834167,446.687042 509.399872,449.631714 
	C510.098663,453.268860 507.741486,456.554291 503.792908,458.089203 
	C500.017487,459.556793 496.916840,458.507416 494.313263,455.757080 
	C493.323303,454.711304 492.779083,453.243591 491.971008,451.568909 
M504.527740,451.886780 
	C504.053192,449.997223 504.006409,447.789917 502.933167,446.345123 
	C502.350525,445.560791 499.093933,445.465302 498.662354,446.122345 
	C497.592865,447.750671 496.461853,450.467712 497.144257,451.887665 
	C498.666992,455.056030 501.503632,454.850616 504.527740,451.886780 
z"/>
<path fill="#FFFAF3" opacity="1.000000" stroke="none" 
	d="
M102.296982,269.713135 
	C100.440178,264.669739 98.668732,260.009460 97.034195,255.301651 
	C95.631630,251.261963 96.724434,247.995132 100.731087,246.241806 
	C104.340393,244.662369 108.080185,246.663742 109.746849,251.031815 
	C114.250870,262.836212 118.690674,274.665863 123.043083,286.526947 
	C124.861145,291.481445 123.553619,295.156036 119.785667,296.629517 
	C115.692078,298.230377 112.374352,296.408203 110.298409,291.091217 
	C107.578705,284.125366 105.051659,277.084351 102.296982,269.713135 
M114.599655,289.743988 
	C115.763657,290.587555 116.927658,291.431122 118.091652,292.274689 
	C118.328934,290.780640 119.147629,289.083466 118.708321,287.825745 
	C116.032585,280.165283 113.062813,272.607758 110.207550,265.009735 
	C108.692734,260.978699 107.352325,256.873169 105.624084,252.936996 
	C105.135132,251.823410 103.556572,251.188248 102.477730,250.333664 
	C102.122826,251.763977 101.511703,253.191635 101.496941,254.625458 
	C101.485847,255.703964 102.247620,256.787476 102.652161,257.873688 
	C106.524544,268.271149 110.394119,278.669678 114.599655,289.743988 
z"/>
<path fill="#FFFAF1" opacity="1.000000" stroke="none" 
	d="
M100.444466,277.150391 
	C98.069572,278.905670 95.715019,281.558014 93.648331,281.349976 
	C91.480888,281.131866 88.833275,278.546173 87.732178,276.330841 
	C85.307404,271.452332 83.706909,266.161957 81.802856,261.027496 
	C80.289742,256.947174 81.341133,253.712448 85.431580,252.032272 
	C89.333160,250.429672 92.589104,251.940887 93.951141,255.713791 
	C96.450119,262.636078 98.407921,269.753754 100.444466,277.150391 
M90.689682,258.885345 
	C89.492050,258.014313 88.294426,257.143250 87.096809,256.272217 
	C86.845818,257.739197 86.036957,259.386932 86.443207,260.640991 
	C87.964218,265.336243 89.764786,269.954163 91.739983,274.479126 
	C92.198563,275.529694 93.760147,276.098846 94.814201,276.889496 
	C95.164856,275.614319 96.094200,274.160858 95.765739,273.094940 
	C94.361565,268.538269 92.586235,264.095947 90.689682,258.885345 
z"/>
<path fill="#FFFAF3" opacity="1.000000" stroke="none" 
	d="
M116.821228,262.120667 
	C115.210762,257.720642 113.531616,253.743271 112.244194,249.642899 
	C110.822243,245.114029 112.479385,241.413620 116.308342,240.344940 
	C120.626488,239.139725 123.317383,241.349518 124.836601,245.171021 
	C126.730957,249.936142 128.548645,254.735825 130.241379,259.575867 
	C132.047791,264.740997 130.942459,268.089813 127.136703,269.702820 
	C123.171326,271.383423 120.090210,269.628174 117.698784,264.319550 
	C117.426788,263.715729 117.182449,263.099518 116.821228,262.120667 
M123.233032,265.156616 
	C126.487358,266.420654 127.277107,264.725281 126.404480,262.102570 
	C124.689896,256.949341 122.769096,251.852814 120.628014,246.863983 
	C120.230270,245.937210 118.397461,245.626343 117.226959,245.031219 
	C116.980858,246.183105 116.235466,247.512268 116.571114,248.457596 
	C118.497414,253.882919 120.680168,259.217194 123.233032,265.156616 
z"/>
<path fill="#FFF9F0" opacity="1.000000" stroke="none" 
	d="
M181.954498,441.898285 
	C186.691422,447.259644 186.829636,452.109100 182.673401,455.596893 
	C178.425766,459.161316 172.830750,458.532227 169.577866,453.980896 
	C167.183411,450.630524 167.278809,447.122070 169.705261,443.815155 
	C172.541672,439.949524 176.293030,439.342010 181.954498,441.898285 
M175.031982,452.990967 
	C177.017624,452.073334 179.334839,451.492767 180.802689,450.048737 
	C181.292862,449.566528 180.036469,446.064270 178.805115,445.419525 
	C177.520279,444.746735 173.952118,445.501984 173.756180,446.252625 
	C173.244278,448.213623 174.029327,450.513184 175.031982,452.990967 
z"/>
<path fill="#FDAF2F" opacity="1.000000" stroke="none" 
	d="
M558.643188,257.634583 
	C559.545532,254.889801 560.020264,252.360641 561.184143,250.203308 
	C561.882996,248.908081 563.657227,248.193100 564.948181,247.217346 
	C565.351807,248.786209 566.440979,250.556610 566.048523,251.891418 
	C563.377686,260.976105 560.385010,269.965912 557.518494,278.993439 
	C556.664795,281.681915 556.171082,284.534760 554.945129,287.033997 
	C554.327576,288.292908 552.440430,288.929047 551.127441,289.846802 
	C550.730713,288.433350 549.692993,286.834869 550.039124,285.635864 
	C552.710388,276.382599 555.649597,267.206665 558.643188,257.634583 
z"/>
<path fill="#FDB238" opacity="1.000000" stroke="none" 
	d="
M578.125000,266.259583 
	C579.300598,265.360382 580.351990,264.824005 581.403442,264.287659 
	C581.761658,265.430511 582.651428,266.716217 582.389099,267.692322 
	C581.011963,272.816803 579.468750,277.907898 577.679382,282.901703 
	C577.280151,284.015747 575.660339,284.692474 574.602478,285.570557 
	C574.156372,284.152985 573.058777,282.564240 573.378296,281.347687 
	C574.683655,276.377411 576.421936,271.520844 578.125000,266.259583 
z"/>
<path fill="#FDB032" opacity="1.000000" stroke="none" 
	d="
M539.660278,265.602112 
	C537.949585,268.290527 539.336975,272.720276 534.644287,272.813568 
	C534.769226,270.085602 534.523071,267.274933 535.108276,264.649567 
	C535.931763,260.955536 537.236389,257.345184 538.636963,253.818832 
	C539.020020,252.854233 540.482361,252.318237 541.449402,251.585510 
	C541.895569,252.819031 542.910583,254.171692 542.681885,255.263931 
	C541.975037,258.639771 540.794128,261.916351 539.660278,265.602112 
z"/>
<path fill="#FDB032" opacity="1.000000" stroke="none" 
	d="
M504.301819,452.213623 
	C501.503632,454.850616 498.666992,455.056030 497.144257,451.887665 
	C496.461853,450.467712 497.592865,447.750671 498.662354,446.122345 
	C499.093933,445.465302 502.350525,445.560791 502.933167,446.345123 
	C504.006409,447.789917 504.053192,449.997223 504.301819,452.213623 
z"/>
<path fill="#FDB034" opacity="1.000000" stroke="none" 
	d="
M114.432076,289.405945 
	C110.394119,278.669678 106.524544,268.271149 102.652161,257.873688 
	C102.247620,256.787476 101.485847,255.703964 101.496941,254.625458 
	C101.511703,253.191635 102.122826,251.763977 102.477730,250.333664 
	C103.556572,251.188248 105.135132,251.823410 105.624084,252.936996 
	C107.352325,256.873169 108.692734,260.978699 110.207550,265.009735 
	C113.062813,272.607758 116.032585,280.165283 118.708321,287.825745 
	C119.147629,289.083466 118.328934,290.780640 118.091660,292.274689 
	C116.927658,291.431122 115.763657,290.587555 114.432076,289.405945 
z"/>
<path fill="#FDAF31" opacity="1.000000" stroke="none" 
	d="
M90.817978,259.248657 
	C92.586235,264.095947 94.361565,268.538269 95.765739,273.094940 
	C96.094200,274.160858 95.164856,275.614319 94.814201,276.889496 
	C93.760147,276.098846 92.198563,275.529694 91.739983,274.479126 
	C89.764786,269.954163 87.964218,265.336243 86.443207,260.640991 
	C86.036957,259.386932 86.845818,257.739197 87.096802,256.272217 
	C88.294426,257.143250 89.492050,258.014313 90.817978,259.248657 
z"/>
<path fill="#FDB135" opacity="1.000000" stroke="none" 
	d="
M123.004471,264.869476 
	C120.680168,259.217194 118.497414,253.882919 116.571114,248.457596 
	C116.235466,247.512268 116.980858,246.183105 117.226959,245.031219 
	C118.397461,245.626343 120.230270,245.937210 120.628014,246.863983 
	C122.769096,251.852814 124.689896,256.949341 126.404480,262.102570 
	C127.277107,264.725281 126.487358,266.420654 123.004471,264.869476 
z"/>
<path fill="#FDB033" opacity="1.000000" stroke="none" 
	d="
M174.664627,452.834351 
	C174.029327,450.513184 173.244278,448.213623 173.756180,446.252625 
	C173.952118,445.501984 177.520279,444.746735 178.805115,445.419525 
	C180.036469,446.064270 181.292862,449.566528 180.802689,450.048737 
	C179.334839,451.492767 177.017624,452.073334 174.664627,452.834351 
z"/>
</svg>